<?xml version="1.0" encoding="UTF-8" standalone="no"?><!DOCTYPE svg PUBLIC "-//W3C//DTD SVG 1.1//EN" "http://www.w3.org/Graphics/SVG/1.1/DTD/svg11.dtd"><svg width="100%" height="100%" viewBox="0 0 650 650" version="1.1" xmlns="http://www.w3.org/2000/svg" xmlns:xlink="http://www.w3.org/1999/xlink" xml:space="preserve" xmlns:serif="http://www.serif.com/" style="fill-rule:evenodd;clip-rule:evenodd;stroke-linejoin:round;stroke-miterlimit:2;"><g><path d="M217.421,252.108l-0,25.229l288.123,0l0,-25.229l-288.123,0Z" style="fill:#000983;"/><path d="M217.421,180.077l-0,25.229l288.123,0l0,-25.229l-288.123,0Z" style="fill:#000983;"/><path d="M217.421,108.046l-0,25.229l288.123,0l0,-25.229l-288.123,0Z" style="fill:#000983;"/><path d="M217.421,324.139l-0,25.229l288.123,0l0,-25.229l-288.123,0Z" style="fill:#000983;"/><path d="M361.483,360.155l-0,25.229l288.123,-0l0,-25.229l-288.123,-0Z" style="fill:#0066b9;"/><path d="M361.483,288.124l-0,25.229l288.123,-0l0,-25.229l-288.123,-0Z" style="fill:#0066b9;"/><path d="M361.483,216.093l-0,25.229l288.123,-0l0,-25.229l-288.123,-0Z" style="fill:#0066b9;"/><path d="M-0,432.186l-0,25.229l288.124,-0l-0,-25.229l-288.124,-0Z" style="fill:#00cfb9;"/><path d="M-0,360.155l-0,25.229l288.124,-0l-0,-25.229l-288.124,-0Z" style="fill:#00cfb9;"/><path d="M-0,288.124l-0,25.229l288.124,-0l-0,-25.229l-288.124,-0Z" style="fill:#00cfb9;"/><path d="M-0,432.186l-0,25.229l288.124,-0l-0,-25.229l-288.124,-0Z" style="fill:#00b0e0;"/><path d="M-0,360.155l-0,25.229l288.124,-0l-0,-25.229l-288.124,-0Z" style="fill:#00b0e0;"/><path d="M-0,288.124l-0,25.229l288.124,-0l-0,-25.229l-288.124,-0Z" style="fill:#00b0e0;"/><path d="M96.041,144.062l0,25.229l288.124,-0l0,-25.229l-288.124,-0Z" style="fill:#0066b9;"/><path d="M96.041,72.031l0,25.229l288.124,-0l0,-25.229l-288.124,-0Z" style="fill:#0066b9;"/><path d="M96.041,-0l0,25.229l288.124,-0l0,-25.229l-288.124,-0Z" style="fill:#0066b9;"/></g></svg>