<?xml version="1.0" encoding="UTF-8" standalone="no"?><!DOCTYPE svg PUBLIC "-//W3C//DTD SVG 1.1//EN" "http://www.w3.org/Graphics/SVG/1.1/DTD/svg11.dtd"><svg width="100%" height="100%" viewBox="0 0 650 650" version="1.1" xmlns="http://www.w3.org/2000/svg" xmlns:xlink="http://www.w3.org/1999/xlink" xml:space="preserve" xmlns:serif="http://www.serif.com/" style="fill-rule:evenodd;clip-rule:evenodd;stroke-linejoin:round;stroke-miterlimit:2;"><g><g><rect x="69.475" y="-0" width="23.622" height="23.158" style="fill:#3100b9;"/><rect x="69.475" y="44.825" width="23.622" height="32.422" style="fill:#3100b9;"/><rect x="69.475" y="106.299" width="23.622" height="46.316" style="fill:#3100b9;"/><rect x="69.475" y="203.634" width="23.622" height="69.475" style="fill:#3100b9;"/><rect x="69.475" y="338.328" width="22.931" height="92.633" style="fill:#3100b9;"/></g><g><rect x="138.949" y="-0" width="23.622" height="23.158" style="fill:#3100b9;"/><rect x="138.949" y="44.825" width="23.622" height="32.422" style="fill:#3100b9;"/><rect x="138.949" y="106.299" width="23.622" height="46.316" style="fill:#3100b9;"/><rect x="138.949" y="203.634" width="23.622" height="69.475" style="fill:#3100b9;"/><rect x="138.949" y="338.328" width="23.622" height="92.633" style="fill:#3100b9;"/></g><g><rect x="208.424" y="-0" width="23.622" height="23.158" style="fill:#3100b9;"/><rect x="208.424" y="44.825" width="23.622" height="32.422" style="fill:#3100b9;"/><rect x="208.424" y="106.299" width="23.622" height="46.316" style="fill:#3100b9;"/><rect x="208.424" y="203.634" width="23.622" height="69.475" style="fill:#3100b9;"/><rect x="208.424" y="338.328" width="23.622" height="92.633" style="fill:#3100b9;"/></g><rect x="0" y="-0" width="24.334" height="23.158" style="fill:#3100b9;"/><rect x="0" y="44.825" width="24.334" height="32.422" style="fill:#3100b9;"/><rect x="0" y="106.299" width="24.334" height="46.316" style="fill:#3100b9;"/><rect x="0" y="203.634" width="24.334" height="69.475" style="fill:#3100b9;"/><rect x="0" y="338.328" width="23.622" height="92.633" style="fill:#3100b9;"/><rect x="0" y="522.792" width="23.622" height="126.814" style="fill:#3100b9;"/><rect x="69.475" y="522.792" width="23.622" height="126.814" style="fill:#3100b9;"/><rect x="138.949" y="522.792" width="23.622" height="126.814" style="fill:#3100b9;"/><rect x="208.424" y="522.792" width="23.622" height="126.814" style="fill:#3100b9;"/><rect x="277.899" y="522.792" width="23.622" height="126.814" style="fill:#3100b9;"/><rect x="348.085" y="522.792" width="23.622" height="126.814" style="fill:#3100b9;"/><rect x="416.848" y="522.792" width="23.622" height="126.814" style="fill:#3100b9;"/><rect x="486.614" y="522.792" width="23.622" height="126.814" style="fill:#3100b9;"/><rect x="556.299" y="522.792" width="23.622" height="126.814" style="fill:#3100b9;"/><rect x="625.984" y="522.792" width="23.622" height="126.814" style="fill:#3100b9;"/><g><rect x="277.899" y="-0" width="24.334" height="23.158" style="fill:#3100b9;"/><rect x="277.899" y="44.825" width="24.334" height="32.422" style="fill:#3100b9;"/><rect x="277.899" y="106.299" width="24.334" height="46.316" style="fill:#3100b9;"/><rect x="277.899" y="203.634" width="24.334" height="69.475" style="fill:#3100b9;"/><rect x="277.899" y="338.328" width="24.334" height="92.633" style="fill:#3100b9;"/></g><g><rect x="347.374" y="-0" width="24.334" height="23.158" style="fill:#3100b9;"/><rect x="347.374" y="44.825" width="24.334" height="32.422" style="fill:#3100b9;"/><rect x="347.374" y="106.299" width="24.334" height="46.316" style="fill:#3100b9;"/><rect x="347.374" y="203.634" width="24.334" height="69.475" style="fill:#3100b9;"/><rect x="347.374" y="338.328" width="24.334" height="92.633" style="fill:#3100b9;"/></g><g><rect x="416.848" y="-0" width="24.334" height="23.158" style="fill:#3100b9;"/><rect x="416.848" y="44.825" width="24.334" height="32.422" style="fill:#3100b9;"/><rect x="416.848" y="106.299" width="24.334" height="46.316" style="fill:#3100b9;"/><rect x="416.848" y="203.634" width="24.334" height="69.475" style="fill:#3100b9;"/><rect x="416.848" y="338.328" width="24.334" height="92.633" style="fill:#3100b9;"/></g><g><rect x="486.323" y="-0" width="24.334" height="23.158" style="fill:#3100b9;"/><rect x="486.323" y="44.825" width="24.334" height="32.422" style="fill:#3100b9;"/><rect x="486.323" y="106.299" width="24.334" height="46.316" style="fill:#3100b9;"/><rect x="486.323" y="203.634" width="24.334" height="69.475" style="fill:#3100b9;"/><rect x="486.323" y="338.328" width="24.334" height="92.633" style="fill:#3100b9;"/></g><g><rect x="555.798" y="-0" width="24.334" height="23.158" style="fill:#3100b9;"/><rect x="555.798" y="44.825" width="24.334" height="32.422" style="fill:#3100b9;"/><rect x="555.798" y="106.299" width="24.334" height="46.316" style="fill:#3100b9;"/><rect x="555.798" y="203.634" width="24.334" height="69.475" style="fill:#3100b9;"/><rect x="555.798" y="338.328" width="24.334" height="92.633" style="fill:#3100b9;"/></g><g><rect x="625.273" y="-0" width="24.334" height="23.158" style="fill:#3100b9;"/><rect x="625.273" y="44.825" width="24.334" height="32.422" style="fill:#3100b9;"/><rect x="625.273" y="106.299" width="24.334" height="46.316" style="fill:#3100b9;"/><rect x="625.273" y="203.634" width="24.334" height="69.475" style="fill:#3100b9;"/><rect x="625.273" y="338.328" width="24.334" height="92.633" style="fill:#3100b9;"/></g></g></svg>