<?xml version="1.0" encoding="UTF-8" standalone="no"?><!DOCTYPE svg PUBLIC "-//W3C//DTD SVG 1.1//EN" "http://www.w3.org/Graphics/SVG/1.1/DTD/svg11.dtd"><svg width="100%" height="100%" viewBox="0 0 650 650" version="1.1" xmlns="http://www.w3.org/2000/svg" xmlns:xlink="http://www.w3.org/1999/xlink" xml:space="preserve" xmlns:serif="http://www.serif.com/" style="fill-rule:evenodd;clip-rule:evenodd;stroke-linejoin:round;stroke-miterlimit:2;"><g><g><g><rect x="41.654" y="-0" width="23.622" height="23.158" style="fill:#07396a;"/><rect x="41.654" y="44.825" width="23.622" height="32.422" style="fill:#07396a;"/><rect x="41.654" y="106.299" width="23.622" height="46.316" style="fill:#07396a;"/><rect x="41.654" y="203.634" width="23.622" height="69.475" style="fill:#07396a;"/><rect x="41.654" y="338.328" width="22.931" height="92.633" style="fill:#07396a;"/></g><rect x="41.654" y="522.792" width="23.622" height="126.814" style="fill:#07396a;"/></g><g><g><rect x="114.153" y="-0" width="23.622" height="23.158" style="fill:#07396a;"/><rect x="114.153" y="44.825" width="23.622" height="32.422" style="fill:#07396a;"/><rect x="114.153" y="106.299" width="23.622" height="46.316" style="fill:#07396a;"/><rect x="114.153" y="203.634" width="23.622" height="69.475" style="fill:#07396a;"/><rect x="114.153" y="338.328" width="23.622" height="92.633" style="fill:#07396a;"/></g><rect x="114.153" y="522.792" width="23.622" height="126.814" style="fill:#07396a;"/></g><g><g><rect x="190.885" y="-0" width="23.622" height="23.158" style="fill:#07396a;"/><rect x="190.885" y="44.825" width="23.622" height="32.422" style="fill:#07396a;"/><rect x="190.885" y="106.299" width="23.622" height="46.316" style="fill:#07396a;"/><rect x="190.885" y="203.634" width="23.622" height="69.475" style="fill:#07396a;"/><rect x="190.885" y="338.328" width="23.622" height="92.633" style="fill:#07396a;"/></g><rect x="190.885" y="522.792" width="23.622" height="126.814" style="fill:#07396a;"/></g><g><rect x="267.013" y="522.792" width="23.622" height="126.814" style="fill:#07396a;"/><g><rect x="267.013" y="-0" width="24.334" height="23.158" style="fill:#07396a;"/><rect x="267.013" y="44.825" width="24.334" height="32.422" style="fill:#07396a;"/><rect x="267.013" y="106.299" width="24.334" height="46.316" style="fill:#07396a;"/><rect x="267.013" y="203.634" width="24.334" height="69.475" style="fill:#07396a;"/><rect x="267.013" y="338.328" width="24.334" height="92.633" style="fill:#07396a;"/></g></g><g><rect x="340.223" y="522.792" width="23.622" height="126.814" style="fill:#07396a;"/><g><rect x="339.511" y="-0" width="24.334" height="23.158" style="fill:#07396a;"/><rect x="339.511" y="44.825" width="24.334" height="32.422" style="fill:#07396a;"/><rect x="339.511" y="106.299" width="24.334" height="46.316" style="fill:#07396a;"/><rect x="339.511" y="203.634" width="24.334" height="69.475" style="fill:#07396a;"/><rect x="339.511" y="338.328" width="24.334" height="92.633" style="fill:#07396a;"/></g></g><g><rect x="419.872" y="522.792" width="23.622" height="126.814" style="fill:#07396a;"/><g><rect x="419.872" y="-0" width="24.334" height="23.158" style="fill:#07396a;"/><rect x="419.872" y="44.825" width="24.334" height="32.422" style="fill:#07396a;"/><rect x="419.872" y="106.299" width="24.334" height="46.316" style="fill:#07396a;"/><rect x="419.872" y="203.634" width="24.334" height="69.475" style="fill:#07396a;"/><rect x="419.872" y="338.328" width="24.334" height="92.633" style="fill:#07396a;"/></g></g><g><rect x="503.549" y="522.792" width="23.622" height="126.814" style="fill:#07396a;"/><g><rect x="503.258" y="-0" width="24.334" height="23.158" style="fill:#07396a;"/><rect x="503.258" y="44.825" width="24.334" height="32.422" style="fill:#07396a;"/><rect x="503.258" y="106.299" width="24.334" height="46.316" style="fill:#07396a;"/><rect x="503.258" y="203.634" width="24.334" height="69.475" style="fill:#07396a;"/><rect x="503.258" y="338.328" width="24.334" height="92.633" style="fill:#07396a;"/></g></g><g><g><rect x="583.014" y="-0" width="24.334" height="23.158" style="fill:#07396a;"/><rect x="583.014" y="44.825" width="24.334" height="32.422" style="fill:#07396a;"/><rect x="583.014" y="106.299" width="24.334" height="46.316" style="fill:#07396a;"/><rect x="583.014" y="203.634" width="24.334" height="69.475" style="fill:#07396a;"/><rect x="583.014" y="338.328" width="24.334" height="92.633" style="fill:#07396a;"/></g><rect x="583.515" y="522.792" width="23.622" height="126.814" style="fill:#07396a;"/></g></g></svg>