<?xml version="1.0" encoding="UTF-8" standalone="no"?><!DOCTYPE svg PUBLIC "-//W3C//DTD SVG 1.1//EN" "http://www.w3.org/Graphics/SVG/1.1/DTD/svg11.dtd"><svg width="100%" height="100%" viewBox="0 0 650 650" version="1.1" xmlns="http://www.w3.org/2000/svg" xmlns:xlink="http://www.w3.org/1999/xlink" xml:space="preserve" xmlns:serif="http://www.serif.com/" style="fill-rule:evenodd;clip-rule:evenodd;stroke-linejoin:round;stroke-miterlimit:2;"><g><g><rect x="69.475" y="0" width="24.334" height="30.934" style="fill:#fff;"/><rect x="138.949" y="0" width="24.334" height="30.934" style="fill:#fff;"/><rect x="208.424" y="0" width="24.334" height="30.934" style="fill:#fff;"/><rect x="0" y="0" width="24.334" height="30.934" style="fill:#fff;"/><rect x="277.899" y="0" width="24.334" height="30.934" style="fill:#fff;"/><rect x="347.374" y="0" width="24.334" height="30.934" style="fill:#fff;"/><rect x="416.848" y="0" width="24.334" height="30.934" style="fill:#fff;"/><rect x="486.323" y="0" width="24.334" height="30.934" style="fill:#fff;"/><rect x="555.798" y="0" width="24.334" height="30.934" style="fill:#fff;"/><rect x="625.273" y="0" width="24.334" height="30.934" style="fill:#fff;"/></g><g><rect x="69.475" y="123.735" width="24.334" height="30.934" style="fill:#fff;"/><rect x="138.949" y="123.735" width="24.334" height="30.934" style="fill:#fff;"/><rect x="208.424" y="123.735" width="24.334" height="30.934" style="fill:#fff;"/><rect x="0" y="123.735" width="24.334" height="30.934" style="fill:#fff;"/><rect x="277.899" y="123.735" width="24.334" height="30.934" style="fill:#fff;"/><rect x="347.374" y="123.735" width="24.334" height="30.934" style="fill:#fff;"/><rect x="416.848" y="123.735" width="24.334" height="30.934" style="fill:#fff;"/><rect x="486.323" y="123.735" width="24.334" height="30.934" style="fill:#fff;"/><rect x="555.798" y="123.735" width="24.334" height="30.934" style="fill:#fff;"/><rect x="625.273" y="123.735" width="24.334" height="30.934" style="fill:#fff;"/></g><g><rect x="69.475" y="247.469" width="24.334" height="30.934" style="fill:#fff;"/><rect x="138.949" y="247.469" width="24.334" height="30.934" style="fill:#fff;"/><rect x="208.424" y="247.469" width="24.334" height="30.934" style="fill:#fff;"/><rect x="0" y="247.469" width="24.334" height="30.934" style="fill:#fff;"/><rect x="277.899" y="247.469" width="24.334" height="30.934" style="fill:#fff;"/><rect x="347.374" y="247.469" width="24.334" height="30.934" style="fill:#fff;"/><rect x="416.848" y="247.469" width="24.334" height="30.934" style="fill:#fff;"/><rect x="486.323" y="247.469" width="24.334" height="30.934" style="fill:#fff;"/><rect x="555.798" y="247.469" width="24.334" height="30.934" style="fill:#fff;"/><rect x="625.273" y="247.469" width="24.334" height="30.934" style="fill:#fff;"/></g><g><rect x="69.475" y="371.204" width="24.334" height="30.934" style="fill:#fff;"/><rect x="138.949" y="371.204" width="24.334" height="30.934" style="fill:#fff;"/><rect x="208.424" y="371.204" width="24.334" height="30.934" style="fill:#fff;"/><rect x="0" y="371.204" width="24.334" height="30.934" style="fill:#fff;"/><rect x="277.899" y="371.204" width="24.334" height="30.934" style="fill:#fff;"/><rect x="347.374" y="371.204" width="24.334" height="30.934" style="fill:#fff;"/><rect x="416.848" y="371.204" width="24.334" height="30.934" style="fill:#fff;"/><rect x="486.323" y="371.204" width="24.334" height="30.934" style="fill:#fff;"/><rect x="555.798" y="371.204" width="24.334" height="30.934" style="fill:#fff;"/><rect x="625.273" y="371.204" width="23.622" height="30.934" style="fill:#fff;"/></g><g><rect x="69.475" y="494.938" width="24.334" height="30.934" style="fill:#fff;"/><rect x="138.949" y="494.938" width="24.334" height="30.934" style="fill:#fff;"/><rect x="208.424" y="494.938" width="24.334" height="30.934" style="fill:#fff;"/><rect x="0" y="494.938" width="24.334" height="30.934" style="fill:#fff;"/><rect x="277.899" y="494.938" width="24.334" height="30.934" style="fill:#fff;"/><rect x="347.374" y="494.938" width="24.334" height="30.934" style="fill:#fff;"/><rect x="416.848" y="494.938" width="24.334" height="30.934" style="fill:#fff;"/><rect x="486.323" y="494.938" width="24.334" height="30.934" style="fill:#fff;"/><rect x="555.798" y="494.938" width="24.334" height="30.934" style="fill:#fff;"/><rect x="625.273" y="494.938" width="24.334" height="30.934" style="fill:#fff;"/></g><g><rect x="69.475" y="618.673" width="24.334" height="30.934" style="fill:#fff;"/><rect x="138.949" y="618.673" width="24.334" height="30.934" style="fill:#fff;"/><rect x="208.424" y="618.673" width="24.334" height="30.934" style="fill:#fff;"/><rect x="0" y="618.673" width="24.334" height="30.934" style="fill:#fff;"/><rect x="277.899" y="618.673" width="24.334" height="30.934" style="fill:#fff;"/><rect x="347.374" y="618.673" width="24.334" height="30.934" style="fill:#fff;"/><rect x="416.848" y="618.673" width="24.334" height="30.934" style="fill:#fff;"/><rect x="486.323" y="618.673" width="24.334" height="30.934" style="fill:#fff;"/><rect x="555.798" y="618.673" width="24.334" height="30.934" style="fill:#fff;"/><rect x="625.273" y="618.673" width="24.334" height="30.934" style="fill:#fff;"/></g></g></svg>